<svg id="Layer_1" data-name="Layer 1" xmlns="http://www.w3.org/2000/svg" viewBox="0 0 1001.87 238.23"><defs><style>.cls-1{fill:#ff7f66;}.cls-2,.cls-4{fill:#2a344f;}.cls-2{opacity:0.32;}.cls-2,.cls-5{isolation:isolate;}.cls-3{opacity:0.16;}.cls-6{fill:#fff;}</style></defs><g id="Page-1"><g id="logo-text"><g id="Group"><g id="Path"><path class="cls-1" d="M199.21,7.78l-81.89,20a5.94,5.94,0,0,1-4.57-.78L74,1.76a5.87,5.87,0,0,0-4.84-.71L2.2,20.74A2.87,2.87,0,0,0,0,23.46V63.51L69.2,43.18a5.87,5.87,0,0,1,4.84.71l38.71,25.23a5.72,5.72,0,0,0,4.57.78L201,49.46V9.11a1.45,1.45,0,0,0-1.45-1.41Z" transform="translate(0 -0.81)"/><path class="cls-1" d="M149.82,104.26l-32.5,7.8a5.81,5.81,0,0,1-4.57-.78L74,86A1.39,1.39,0,0,0,73,85.8a1.35,1.35,0,0,0-.9.63,1.17,1.17,0,0,0-.26.74v38a2.81,2.81,0,0,0,1.27,2.34l39.68,26a5.87,5.87,0,0,0,4.57.74l34.36-8.21a25.5,25.5,0,0,0,19.54-24.67v-.78A17.18,17.18,0,0,0,153.8,103.7a18.45,18.45,0,0,0-4,.56Z" transform="translate(0 -0.81)"/><path class="cls-1" d="M149.82,188.52l-32.5,7.8a5.94,5.94,0,0,1-4.57-.78L74,170.28a1.45,1.45,0,0,0-1.07-.22,1.41,1.41,0,0,0-.91.59,1.31,1.31,0,0,0-.26.78v38a2.81,2.81,0,0,0,1.27,2.34l39.68,26a5.72,5.72,0,0,0,4.57.78l34.36-8.25a25.42,25.42,0,0,0,19.54-24.67v-.78A17.17,17.17,0,0,0,153.8,188a16.25,16.25,0,0,0-4,.55Z" transform="translate(0 -0.81)"/></g><path id="Shape" class="cls-2" d="M114,154.84V113.07a6.36,6.36,0,0,0,2.46,0l14-3.7,8.19,40-22.32,5.4A5.46,5.46,0,0,1,114,154.84Zm32.81,34.53-30.35,7.4a6.36,6.36,0,0,1-2.46,0v42.11a6.36,6.36,0,0,0,2.46,0l38.54-9.4ZM114,71a6,6,0,0,0,2.46,0l5.84-1.41L114,29Z" transform="translate(0 -0.81)"/><g id="Path-2" data-name="Path" class="cls-3"><path class="cls-4" d="M71.25,43.25a6.64,6.64,0,0,1,2.24.86L112.35,69.4a5.15,5.15,0,0,0,2.13.82V28a5.15,5.15,0,0,1-2.13-.82L73.49,1.93a6.64,6.64,0,0,0-2.24-.86Z" transform="translate(0 -0.81)"/><path class="cls-4" d="M114.48,196.79a6.26,6.26,0,0,1-2.13-.85L73.49,170.65a1.45,1.45,0,0,0-2,.41,1.3,1.3,0,0,0-.23.74v38a2.8,2.8,0,0,0,1.27,2.34l39.83,26a6.42,6.42,0,0,0,2.13.82Z" transform="translate(0 -0.81)"/><path class="cls-4" d="M73.49,86.29a1.45,1.45,0,0,0-2,.41,1.32,1.32,0,0,0-.23.74v38.05a2.78,2.78,0,0,0,1.27,2.34l39.83,26a5.83,5.83,0,0,0,2.13.82V112.58a5.28,5.28,0,0,1-2.13-.85Z" transform="translate(0 -0.81)"/></g></g><g id="Themesberg" class="cls-5"><g class="cls-5"><path class="cls-6" d="M290.06,162V87.44H261.55V71.05h77.14V87.44H310.18V162Z" transform="translate(0 -0.81)"/><path class="cls-6" d="M404.35,103.76q5.55,6.64,5.55,20.06V162H390.42V124.72q0-6.45-2.39-9.42c-1.59-2-4.06-3-7.42-3a12.79,12.79,0,0,0-9.73,3.87q-3.69,3.87-3.68,10.32V162H347.72V71.05H367.2v36a21.54,21.54,0,0,1,8.58-7.42,26.49,26.49,0,0,1,11.67-2.52Q398.8,97.11,404.35,103.76Z" transform="translate(0 -0.81)"/><path class="cls-6" d="M481.49,134H440.21q.9,7.61,5,11t11.54,3.42a30.47,30.47,0,0,0,9.74-1.62,31.21,31.21,0,0,0,8.84-4.58l5.16,13A35.3,35.3,0,0,1,469.17,161,45,45,0,0,1,455.82,163q-16,0-25.22-8.83t-9.22-24.06a35.81,35.81,0,0,1,4-17.16,29.21,29.21,0,0,1,11.09-11.67,31,31,0,0,1,16.12-4.2q13.29,0,21.1,8.65t7.8,23.47Zm-37.22-19.93q-3.28,3.54-4.06,10.25h24.9q-.39-6.84-3.42-10.32t-8.58-3.48A11.47,11.47,0,0,0,444.27,114.08Z" transform="translate(0 -0.81)"/><path class="cls-6" d="M587.4,103.69q5.28,6.59,5.29,20.13V162H573.21V124.46c0-4.3-.67-7.39-2-9.29s-3.59-2.83-6.77-2.83a10.47,10.47,0,0,0-8.65,3.87q-3.09,3.87-3.09,10.83v35H533.22V124.46c0-4.3-.67-7.39-2-9.29s-3.59-2.83-6.77-2.83a10.47,10.47,0,0,0-8.65,3.87q-3.09,3.87-3.09,10.83v35H493.23V98.66h19v8.51a19.87,19.87,0,0,1,7.93-7.48,24.42,24.42,0,0,1,11.42-2.58q14.06,0,18.84,11.74a22.68,22.68,0,0,1,8.64-8.58,24.36,24.36,0,0,1,12.25-3.16Q582.12,97.11,587.4,103.69Z" transform="translate(0 -0.81)"/><path class="cls-6" d="M664.41,134H623.13q.9,7.61,5,11t11.54,3.42a30.47,30.47,0,0,0,9.74-1.62,31.21,31.21,0,0,0,8.84-4.58l5.16,13A35.3,35.3,0,0,1,652.09,161,45,45,0,0,1,638.74,163q-16,0-25.22-8.83t-9.22-24.06a35.92,35.92,0,0,1,4-17.16,29.3,29.3,0,0,1,11.1-11.67,31,31,0,0,1,16.12-4.2q13.29,0,21.1,8.65t7.8,23.47Zm-37.22-19.93q-3.29,3.54-4.06,10.25H648q-.39-6.84-3.42-10.32T636,110.53A11.47,11.47,0,0,0,627.19,114.08Z" transform="translate(0 -0.81)"/><path class="cls-6" d="M684.47,161a39.67,39.67,0,0,1-12.58-5.74l5.16-13.41a43.34,43.34,0,0,0,11.35,5.41,41.76,41.76,0,0,0,12.52,1.94,13.9,13.9,0,0,0,7-1.48,4.56,4.56,0,0,0,2.51-4.07,4.23,4.23,0,0,0-1.74-3.61q-1.74-1.29-6.51-2.32l-10.32-2.32q-9.17-2.07-13.48-6.39t-4.33-11.8a16.83,16.83,0,0,1,3.42-10.45,22.56,22.56,0,0,1,9.68-7.1,37.1,37.1,0,0,1,14.25-2.58,43.23,43.23,0,0,1,13.29,2.07,40.75,40.75,0,0,1,11.61,5.8l-5.16,12.9q-10.06-7-19.87-7a13.79,13.79,0,0,0-7.09,1.54,4.87,4.87,0,0,0-2.58,4.39,3.8,3.8,0,0,0,1.55,3.23,16.88,16.88,0,0,0,5.41,2.19l10.71,2.45q9.68,2.19,14.13,6.64t4.45,12.06a16.75,16.75,0,0,1-7.29,14.39Q713.3,163,700.53,163A60.31,60.31,0,0,1,684.47,161Z" transform="translate(0 -0.81)"/><path class="cls-6" d="M792.76,101.11a26.73,26.73,0,0,1,9.87,11.42,39.41,39.41,0,0,1,3.55,17.22,40.25,40.25,0,0,1-3.55,17.35,27.73,27.73,0,0,1-9.93,11.74A25.88,25.88,0,0,1,778.19,163a25.13,25.13,0,0,1-11.87-2.77,19.72,19.72,0,0,1-8.13-7.68V162H739V71.05h19.48v36.12a19.23,19.23,0,0,1,8.06-7.41,25.56,25.56,0,0,1,11.68-2.65A26.71,26.71,0,0,1,792.76,101.11Zm-9.67,42.25q3.74-4.85,3.74-13.61t-3.74-13.22Q779.34,112,772.51,112t-10.58,4.71q-3.73,4.71-3.74,13.35t3.74,13.48q3.75,4.71,10.58,4.71T783.09,143.36Z" transform="translate(0 -0.81)"/><path class="cls-6" d="M875.06,134H833.78q.9,7.61,5,11t11.55,3.42a30.56,30.56,0,0,0,9.74-1.62,31.15,31.15,0,0,0,8.83-4.58l5.16,13A35.24,35.24,0,0,1,862.75,161,45.09,45.09,0,0,1,849.39,163q-16,0-25.22-8.83T815,130.14A35.81,35.81,0,0,1,819,113,29.21,29.21,0,0,1,830,101.31a31.07,31.07,0,0,1,16.13-4.2q13.29,0,21.09,8.65t7.8,23.47Zm-37.21-19.93q-3.29,3.54-4.07,10.25h24.9q-.39-6.84-3.42-10.32t-8.58-3.48A11.45,11.45,0,0,0,837.85,114.08Z" transform="translate(0 -0.81)"/><path class="cls-6" d="M932.08,113.11l-11,1.16q-8.13.78-11.48,4.58T906.28,129v33H886.8V98.66h18.71v10.71q4.77-11,19.73-12l5.68-.39Z" transform="translate(0 -0.81)"/><path class="cls-6" d="M1001.87,98.66v56.5q0,15.36-8.77,23.22t-25.93,7.87a63.8,63.8,0,0,1-16.32-2.06,49.08,49.08,0,0,1-13.74-5.81L942.27,165q12.26,6.71,24.38,6.7,16,0,16-15.09v-7a19.16,19.16,0,0,1-8.13,7.74,25.74,25.74,0,0,1-12.13,2.83,27.7,27.7,0,0,1-14.64-3.87,26.48,26.48,0,0,1-10-11,36.33,36.33,0,0,1-3.62-16.58,36.31,36.31,0,0,1,3.62-16.58,26.91,26.91,0,0,1,10-11.09,27.29,27.29,0,0,1,14.64-3.94,25.56,25.56,0,0,1,11.94,2.78,19.74,19.74,0,0,1,8.19,7.67v-8.9ZM978.71,141q3.81-4.38,3.81-12.25t-3.81-12.32q-3.8-4.45-10.64-4.45t-10.71,4.45q-3.87,4.45-3.87,12.32t3.87,12.19q3.87,4.46,10.71,4.45T978.71,141Z" transform="translate(0 -0.81)"/></g></g></g></g></svg>