<?xml version="1.0" encoding="iso-8859-1"?>
<!-- Generator: Adobe Illustrator 19.0.0, SVG Export Plug-In . SVG Version: 6.00 Build 0)  -->
<svg version="1.1" id="Layer_1" xmlns="http://www.w3.org/2000/svg" xmlns:xlink="http://www.w3.org/1999/xlink" x="0px" y="0px"
	 viewBox="0 0 512 512" style="enable-background:new 0 0 512 512;" xml:space="preserve">
<circle style="fill:#D80027;" cx="256" cy="256" r="256"/>
<path d="M400.696,190.009H307.97c5.724-5.994,9.247-14.109,9.247-23.052c0-18.441-14.95-33.391-33.391-33.391
	c-11.618,0-21.845,5.936-27.826,14.937c-5.981-9.001-16.209-14.937-27.826-14.937c-18.441,0-33.391,14.95-33.391,33.391
	c0,8.943,3.523,17.059,9.247,23.052h-92.725c0,24.589,21.417,44.521,46.004,44.521h-1.484c0,24.59,19.933,44.523,44.523,44.523
	c0,7.964,2.099,15.43,5.763,21.894l-36.93,36.931l28.334,28.332l40.192-40.191c1.574,0.577,3.203,1.04,4.885,1.355l-24.287,54.835
	L256,422.957l37.695-40.75l-24.287-54.835c1.683-0.315,3.311-0.777,4.885-1.355l40.192,40.191l28.334-28.333l-36.931-36.931
	c3.665-6.463,5.764-13.93,5.764-21.894c24.589,0,44.522-19.932,44.522-44.523h-1.483
	C379.278,234.529,400.696,214.598,400.696,190.009z"/>
<g>
</g>
<g>
</g>
<g>
</g>
<g>
</g>
<g>
</g>
<g>
</g>
<g>
</g>
<g>
</g>
<g>
</g>
<g>
</g>
<g>
</g>
<g>
</g>
<g>
</g>
<g>
</g>
<g>
</g>
</svg>
