<?xml version="1.0" encoding="iso-8859-1"?>
<!-- Generator: Adobe Illustrator 19.0.0, SVG Export Plug-In . SVG Version: 6.00 Build 0)  -->
<svg version="1.1" id="Layer_1" xmlns="http://www.w3.org/2000/svg" xmlns:xlink="http://www.w3.org/1999/xlink" x="0px" y="0px"
	 viewBox="0 0 512 512" style="enable-background:new 0 0 512 512;" xml:space="preserve">
<circle style="fill:#F0F0F0;" cx="256" cy="256" r="256"/>
<g>
	<path style="fill:#0052B4;" d="M380.196,32.112C343.412,11.664,301.07,0,256,0C114.626,0,0.018,114.598,0,255.97l178.087-89.013
		L380.196,32.112z"/>
	<path style="fill:#0052B4;" d="M0,256.03C0.018,397.402,114.626,512,256,512c45.07,0,87.412-11.662,124.196-32.112L178.087,345.043
		L0,256.03z"/>
</g>
<path style="fill:#D80027;" d="M401.53,45.382c-6.876-4.759-14.001-9.185-21.343-13.266L0,255.97c0,0.01,0,0.02,0,0.03
	s0,0.021,0,0.03l380.188,223.853c7.342-4.082,14.466-8.507,21.343-13.266L43.822,256L401.53,45.382z"/>
<path style="fill:#A2001D;" d="M445.217,246.453h-30.494c7.929-9.52,7.44-23.683-1.493-32.614c9.462-9.461,9.462-24.802,0-34.265
	l-0.57,0.572c9.461-9.461,10.032-25.374,0.57-34.835L276.174,282.367c9.462,9.463,24.534,9.35,33.995-0.112l2.638-2.411
	l65.628-5.966v28.226h22.261v-30.25l33.391-3.035L445.217,246.453z"/>
<polygon style="fill:#FFDA44;" points="278.269,311.652 256,300.522 278.269,289.391 422.964,289.391 422.964,311.652 "/>
<g>
</g>
<g>
</g>
<g>
</g>
<g>
</g>
<g>
</g>
<g>
</g>
<g>
</g>
<g>
</g>
<g>
</g>
<g>
</g>
<g>
</g>
<g>
</g>
<g>
</g>
<g>
</g>
<g>
</g>
</svg>
