<?xml version="1.0" encoding="iso-8859-1"?>
<!-- Generator: Adobe Illustrator 19.0.0, SVG Export Plug-In . SVG Version: 6.00 Build 0)  -->
<svg version="1.1" id="Layer_1" xmlns="http://www.w3.org/2000/svg" xmlns:xlink="http://www.w3.org/1999/xlink" x="0px" y="0px"
	 viewBox="0 0 512 512" style="enable-background:new 0 0 512 512;" xml:space="preserve">
<path style="fill:#0052B4;" d="M512,256c0,141.384-114.616,256-256,256S0,397.384,0,256C0,256.061,256,0.028,256,0
	C397.384,0,512,114.616,512,256z"/>
<g>
	<path style="fill:#F0F0F0;" d="M256,0c-0.016,0-0.028,0-0.043,0H256L256,0z"/>
	<path style="fill:#F0F0F0;" d="M255.315,256H256c0-0.23,0-0.454,0-0.685C255.772,255.544,255.544,255.772,255.315,256z"/>
	<path style="fill:#F0F0F0;" d="M256,133.565C256,88.52,256,59.005,256,0h-0.043C114.591,0.024,0,114.629,0,256h133.565v-75.211
		L208.776,256h46.54c0.228-0.228,0.456-0.456,0.685-0.685c0-17.247,0-32.636,0-46.537l-75.213-75.213H256z"/>
</g>
<g>
	<path style="fill:#D80027;" d="M129.515,33.391C89.476,56.19,56.189,89.476,33.391,129.515V256h66.783V100.176v-0.002H256
		c0-21.063,0-41.129,0-66.783H129.515z"/>
	<path style="fill:#D80027;" d="M256,224.519l-90.955-90.953h-31.48v0.002L255.998,256H256C256,256,256,234.293,256,224.519z"/>
</g>
<g>
	<path style="fill:#496E2D;" d="M445.217,256L445.217,256L445.217,256z"/>
	<path style="fill:#496E2D;" d="M289.391,256L289.391,256L289.391,256z"/>
</g>
<path style="fill:#F3F3F3;" d="M432.939,293.474c7.361-10.128,12.278-22.496,12.278-37.474V144.696
	c-9.302,6.988-20.862,11.13-33.391,11.13c-18.206,0-34.369-8.743-44.522-22.259c-10.154,13.516-26.317,22.259-44.522,22.259
	c-12.53,0-24.09-4.143-33.391-11.128V256c0,14.978,4.917,27.346,12.278,37.474H432.939z"/>
<g>
	<path style="fill:#FF9811;" d="M409.785,235.351c3.544-8.646,6.3-21.283,6.3-27.572c0-10.105-13.174-18.296-13.174-18.296
		s-13.174,8.191-13.174,18.296c0,6.29,2.757,18.927,6.299,27.572l-7.605,17.171c4.47,1.818,9.356,2.828,14.481,2.828
		s10.01-1.011,14.481-2.828L409.785,235.351z"/>
	<path style="fill:#FF9811;" d="M358.294,179.752c-9.256,1.254-21.579,5.189-27.025,8.333c-8.751,5.053-9.259,20.556-9.259,20.556
		s13.682,7.313,22.432,2.261c5.448-3.145,15.012-11.849,20.725-19.241l18.676-2c-0.661-4.778-2.233-9.515-4.792-13.952
		c-2.564-4.437-5.879-8.165-9.689-11.128L358.294,179.752z"/>
	<path style="fill:#FF9811;" d="M335.892,252.146c5.713,7.388,15.28,16.091,20.728,19.237c8.751,5.052,22.432-2.259,22.432-2.259
		s-0.51-15.505-9.259-20.558c-5.449-3.145-17.77-7.076-27.028-8.328l-11.067-15.173c-3.809,2.962-7.125,6.692-9.688,11.125
		c-2.561,4.439-4.129,9.174-4.793,13.955L335.892,252.146z"/>
</g>
<path style="fill:#338AF3;" d="M298.916,289.394c20.788,33.355,68.389,44.52,68.389,44.52s47.6-11.165,68.389-44.52H298.916z"/>
<g>
</g>
<g>
</g>
<g>
</g>
<g>
</g>
<g>
</g>
<g>
</g>
<g>
</g>
<g>
</g>
<g>
</g>
<g>
</g>
<g>
</g>
<g>
</g>
<g>
</g>
<g>
</g>
<g>
</g>
</svg>
