<?xml version="1.0" encoding="iso-8859-1"?>
<!-- Generator: Adobe Illustrator 19.0.0, SVG Export Plug-In . SVG Version: 6.00 Build 0)  -->
<svg version="1.1" id="Layer_1" xmlns="http://www.w3.org/2000/svg" xmlns:xlink="http://www.w3.org/1999/xlink" x="0px" y="0px"
	 viewBox="0 0 512 512" style="enable-background:new 0 0 512 512;" xml:space="preserve">
<path style="fill:#D80027;" d="M512,256c0-31.314-5.632-61.311-15.923-89.043L256,155.826l-240.077,11.13
	C5.633,194.689,0,224.686,0,256s5.633,61.311,15.923,89.043L256,356.174l240.077-11.13C506.368,317.311,512,287.314,512,256z"/>
<path style="fill:#6DA544;" d="M256,512c110.071,0,203.906-69.472,240.077-166.957H15.923C52.094,442.528,145.929,512,256,512z"/>
<path style="fill:#338AF3;" d="M15.923,166.957h480.155C459.906,69.472,366.071,0,256,0S52.094,69.472,15.923,166.957z"/>
<g>
	<path style="fill:#F0F0F0;" d="M261.565,328.348c-39.956,0-72.348-32.392-72.348-72.348s32.392-72.348,72.348-72.348
		c12.458,0,24.181,3.15,34.415,8.696c-16.056-15.701-38.012-25.392-62.241-25.392c-49.178,0-89.043,39.866-89.043,89.043
		s39.866,89.043,89.043,89.043c24.23,0,46.186-9.691,62.241-25.392C285.746,325.198,274.023,328.348,261.565,328.348z"/>
	<polygon style="fill:#F0F0F0;" points="317.217,205.913 326.8,232.864 352.634,220.582 340.353,246.416 367.304,256 
		340.353,265.584 352.634,291.418 326.8,279.136 317.217,306.087 307.635,279.136 281.8,291.418 294.082,265.584 267.13,256 
		294.082,246.416 281.8,220.582 307.635,232.864 	"/>
</g>
<g>
</g>
<g>
</g>
<g>
</g>
<g>
</g>
<g>
</g>
<g>
</g>
<g>
</g>
<g>
</g>
<g>
</g>
<g>
</g>
<g>
</g>
<g>
</g>
<g>
</g>
<g>
</g>
<g>
</g>
</svg>
