<?xml version="1.0" encoding="iso-8859-1"?>
<!-- Generator: Adobe Illustrator 19.0.0, SVG Export Plug-In . SVG Version: 6.00 Build 0)  -->
<svg version="1.1" id="Layer_1" xmlns="http://www.w3.org/2000/svg" xmlns:xlink="http://www.w3.org/1999/xlink" x="0px" y="0px"
	 viewBox="0 0 512 512" style="enable-background:new 0 0 512 512;" xml:space="preserve">
<path style="fill:#F0F0F0;" d="M12.089,178.086C4.247,202.655,0,228.828,0.001,255.999C0,283.168,4.247,309.342,12.09,333.912
	l243.911,11.132l243.91-11.132C507.752,309.342,512,283.167,512,256c0-27.17-4.247-53.345-12.089-77.914l-243.911-11.13
	L12.089,178.086z"/>
<path d="M512,256c0-15.187-1.33-30.063-3.867-44.523H3.868C1.33,225.937,0,240.811,0,255.999s1.331,30.062,3.868,44.522h504.265
	C510.669,286.06,512,271.186,512,256z"/>
<g>
	<path style="fill:#338AF3;" d="M256.001,511.999c114.216,0,210.946-74.803,243.91-178.088H12.09
		C45.055,437.195,141.786,511.997,256.001,511.999z"/>
	<path style="fill:#338AF3;" d="M256.001,0.001c-114.215,0-210.945,74.803-243.912,178.085l487.82,0.001
		C466.946,74.804,370.215-0.001,256.001,0.001z"/>
</g>
<g>
</g>
<g>
</g>
<g>
</g>
<g>
</g>
<g>
</g>
<g>
</g>
<g>
</g>
<g>
</g>
<g>
</g>
<g>
</g>
<g>
</g>
<g>
</g>
<g>
</g>
<g>
</g>
<g>
</g>
</svg>
