<?xml version="1.0" encoding="iso-8859-1"?>
<!-- Generator: Adobe Illustrator 19.0.0, SVG Export Plug-In . SVG Version: 6.00 Build 0)  -->
<svg version="1.1" id="Layer_1" xmlns="http://www.w3.org/2000/svg" xmlns:xlink="http://www.w3.org/1999/xlink" x="0px" y="0px"
	 viewBox="0 0 512 512" style="enable-background:new 0 0 512 512;" xml:space="preserve">
<polygon style="fill:#FF9811;" points="0.001,44.522 0,44.522 0,467.478 0.001,467.478 0.001,256.001 "/>
<circle style="fill:#F0F0F0;" cx="255.999" cy="256" r="255.999"/>
<g>
	<path style="fill:#0052B4;" d="M256.001,0.002c-83.752,0-158.106,40.223-204.811,102.4h409.621
		C414.107,40.224,339.752,0.002,256.001,0.002z"/>
	<path style="fill:#0052B4;" d="M256.001,511.999c83.752,0,158.106-40.223,204.811-102.4H51.19
		C97.894,471.777,172.249,511.999,256.001,511.999z"/>
	<path style="fill:#0052B4;" d="M0.001,256.001c0,17.535,1.768,34.657,5.127,51.2h501.747c3.359-16.543,5.126-33.665,5.126-51.2
		s-1.768-34.657-5.126-51.2H5.128C1.769,221.344,0.001,238.466,0.001,256.001z"/>
</g>
<path style="fill:#D80027;" d="M74.981,74.982c-99.973,99.973-99.973,262.064,0,362.039
	c41.313-41.313,81.045-81.046,181.019-181.019L74.981,74.982z"/>
<polygon style="fill:#F0F0F0;" points="103.611,189.219 120.185,240.234 173.831,240.234 130.434,271.766 147.008,322.782 
	103.611,291.252 60.212,322.782 76.79,271.766 33.392,240.234 87.034,240.234 "/>
<g>
</g>
<g>
</g>
<g>
</g>
<g>
</g>
<g>
</g>
<g>
</g>
<g>
</g>
<g>
</g>
<g>
</g>
<g>
</g>
<g>
</g>
<g>
</g>
<g>
</g>
<g>
</g>
<g>
</g>
</svg>
