<?xml version="1.0" encoding="iso-8859-1"?>
<!-- Generator: Adobe Illustrator 19.0.0, SVG Export Plug-In . SVG Version: 6.00 Build 0)  -->
<svg version="1.1" id="Layer_1" xmlns="http://www.w3.org/2000/svg" xmlns:xlink="http://www.w3.org/1999/xlink" x="0px" y="0px"
	 viewBox="0 0 512 512" style="enable-background:new 0 0 512 512;" xml:space="preserve">
<path style="fill:#FFDA44;" d="M0,256C0,114.616,114.616,0,256,0s256,114.616,256,256l-256,22.261L0,256z"/>
<path style="fill:#D80027;" d="M34.256,384C78.521,460.516,161.245,512,256,512s177.479-51.484,221.744-128L256,367.304L34.256,384z
	"/>
<path style="fill:#0052B4;" d="M477.744,384C499.526,346.346,512,302.631,512,256H0c0,46.631,12.474,90.346,34.256,128H477.744z"/>
<circle style="fill:#FFDA44;" cx="256" cy="256" r="89.043"/>
<path style="fill:#338AF3;" d="M256,311.652c-30.687,0-55.652-24.966-55.652-55.652v-33.391c0-30.687,24.966-55.652,55.652-55.652
	s55.652,24.966,55.652,55.652V256C311.652,286.687,286.687,311.652,256,311.652z"/>
<path d="M345.043,122.435h-66.783c0-12.294-9.967-22.261-22.261-22.261s-22.261,9.967-22.261,22.261h-66.783
	c0,12.295,10.709,22.261,23.002,22.261h-0.741c0,12.295,9.966,22.261,22.261,22.261c0,12.295,9.966,22.261,22.261,22.261h44.522
	c12.295,0,22.261-9.966,22.261-22.261c12.295,0,22.261-9.966,22.261-22.261h-0.741C334.335,144.696,345.043,134.729,345.043,122.435
	z"/>
<g>
</g>
<g>
</g>
<g>
</g>
<g>
</g>
<g>
</g>
<g>
</g>
<g>
</g>
<g>
</g>
<g>
</g>
<g>
</g>
<g>
</g>
<g>
</g>
<g>
</g>
<g>
</g>
<g>
</g>
</svg>
