<?xml version="1.0" encoding="iso-8859-1"?>
<!-- Generator: Adobe Illustrator 19.0.0, SVG Export Plug-In . SVG Version: 6.00 Build 0)  -->
<svg version="1.1" id="Layer_1" xmlns="http://www.w3.org/2000/svg" xmlns:xlink="http://www.w3.org/1999/xlink" x="0px" y="0px"
	 viewBox="0 0 512 512" style="enable-background:new 0 0 512 512;" xml:space="preserve">
<path d="M0,256c0,31.314,5.633,61.31,15.923,89.043L256,356.174l240.077-11.13C506.368,317.31,512,287.314,512,256
	s-5.632-61.31-15.923-89.043L256,155.826l-240.077,11.13C5.633,194.69,0,224.686,0,256z"/>
<path style="fill:#0052B4;" d="M256,0C145.929,0,52.094,69.472,15.923,166.957h480.155C459.906,69.472,366.071,0,256,0z"/>
<path style="fill:#F0F0F0;" d="M496.077,345.043H15.923C52.094,442.527,145.929,512,256,512S459.906,442.527,496.077,345.043z"/>
<g>
</g>
<g>
</g>
<g>
</g>
<g>
</g>
<g>
</g>
<g>
</g>
<g>
</g>
<g>
</g>
<g>
</g>
<g>
</g>
<g>
</g>
<g>
</g>
<g>
</g>
<g>
</g>
<g>
</g>
</svg>
