<?xml version="1.0" encoding="iso-8859-1"?>
<!-- Generator: Adobe Illustrator 19.0.0, SVG Export Plug-In . SVG Version: 6.00 Build 0)  -->
<svg version="1.1" id="Layer_1" xmlns="http://www.w3.org/2000/svg" xmlns:xlink="http://www.w3.org/1999/xlink" x="0px" y="0px"
	 viewBox="0 0 512 512" style="enable-background:new 0 0 512 512;" xml:space="preserve">
<path style="fill:#FFDA44;" d="M0,256c0,31.316,5.633,61.312,15.924,89.046L256,367.304l240.076-22.259
	C506.368,317.312,512,287.315,512,256c0-30.885-5.471-60.492-15.494-87.905L256,144.696l-240.506,23.4
	C5.471,195.508,0,225.115,0,256z"/>
<path style="fill:#D80027;" d="M256,512c110.071,0,203.906-69.472,240.077-166.957H15.923C52.094,442.528,145.929,512,256,512z"/>
<path style="fill:#6DA544;" d="M256,0C145.929,0,52.094,69.472,15.923,166.957h480.155C459.906,69.472,366.071,0,256,0z"/>
<circle style="fill:#0052B4;" cx="256" cy="256" r="122.435"/>
<g>
	<polygon style="fill:#FFDA44;" points="255.974,161.191 278.076,229.213 349.713,229.213 291.735,271.254 314.011,339.478 
		255.974,297.237 198.026,339.4 220.212,271.254 162.287,229.213 233.872,229.213 	"/>
	<polygon style="fill:#FFDA44;" points="344.124,272.93 274.008,250.146 317.341,190.506 299.333,177.42 255.998,237.064 
		212.667,177.421 194.657,190.505 237.989,250.15 167.876,272.929 174.754,294.102 244.87,271.321 244.87,345.043 267.13,345.043 
		267.13,271.32 337.243,294.102 	"/>
</g>
<g>
</g>
<g>
</g>
<g>
</g>
<g>
</g>
<g>
</g>
<g>
</g>
<g>
</g>
<g>
</g>
<g>
</g>
<g>
</g>
<g>
</g>
<g>
</g>
<g>
</g>
<g>
</g>
<g>
</g>
</svg>
