<?xml version="1.0" encoding="iso-8859-1"?>
<!-- Generator: Adobe Illustrator 19.0.0, SVG Export Plug-In . SVG Version: 6.00 Build 0)  -->
<svg version="1.1" id="Layer_1" xmlns="http://www.w3.org/2000/svg" xmlns:xlink="http://www.w3.org/1999/xlink" x="0px" y="0px"
	 viewBox="0 0 512 512" style="enable-background:new 0 0 512 512;" xml:space="preserve">
<circle style="fill:#F0F0F0;" cx="256" cy="256" r="256"/>
<g>
	<path style="fill:#D80027;" d="M509.833,222.609h-220.44h-0.001V2.167C278.461,0.744,267.317,0,256,0s-22.461,0.744-33.391,2.167
		v220.44v0.001H2.167C0.744,233.539,0,244.683,0,256c0,11.319,0.744,22.461,2.167,33.391h220.44h0.001v220.442
		C233.539,511.256,244.683,512,256,512s22.461-0.743,33.391-2.167v-220.44v-0.001h220.442C511.256,278.461,512,267.319,512,256
		C512,244.683,511.256,233.539,509.833,222.609z"/>
	<polygon style="fill:#D80027;" points="155.826,122.435 155.826,89.043 122.435,89.043 122.435,122.435 89.043,122.435 
		89.043,155.826 122.435,155.826 122.435,189.217 155.826,189.217 155.826,155.826 189.217,155.826 189.217,122.435 	"/>
	<polygon style="fill:#D80027;" points="389.565,122.435 389.565,89.043 356.174,89.043 356.174,122.435 322.783,122.435 
		322.783,155.826 356.174,155.826 356.174,189.217 389.565,189.217 389.565,155.826 422.957,155.826 422.957,122.435 	"/>
	<polygon style="fill:#D80027;" points="155.826,356.174 155.826,322.783 122.435,322.783 122.435,356.174 89.043,356.174 
		89.043,389.565 122.435,389.565 122.435,422.957 155.826,422.957 155.826,389.565 189.217,389.565 189.217,356.174 	"/>
	<polygon style="fill:#D80027;" points="389.565,356.174 389.565,322.783 356.174,322.783 356.174,356.174 322.783,356.174 
		322.783,389.565 356.174,389.565 356.174,422.957 389.565,422.957 389.565,389.565 422.957,389.565 422.957,356.174 	"/>
</g>
<g>
</g>
<g>
</g>
<g>
</g>
<g>
</g>
<g>
</g>
<g>
</g>
<g>
</g>
<g>
</g>
<g>
</g>
<g>
</g>
<g>
</g>
<g>
</g>
<g>
</g>
<g>
</g>
<g>
</g>
</svg>
