<?xml version="1.0" encoding="iso-8859-1"?>
<!-- Generator: Adobe Illustrator 19.0.0, SVG Export Plug-In . SVG Version: 6.00 Build 0)  -->
<svg version="1.1" id="Layer_1" xmlns="http://www.w3.org/2000/svg" xmlns:xlink="http://www.w3.org/1999/xlink" x="0px" y="0px"
	 viewBox="0 0 512 512" style="enable-background:new 0 0 512 512;" xml:space="preserve">
<circle style="fill:#F0F0F0;" cx="256" cy="256" r="256"/>
<path style="fill:#D80027;" d="M339.147,189.217h-33.494c0.277,3.681,0.434,7.395,0.434,11.13c0,24.764-6.19,48.767-16.981,65.853
	c-3.329,5.27-8.923,12.712-16.411,17.732v-94.716h-33.391v94.716c-7.487-5.02-13.082-12.461-16.411-17.732
	c-10.792-17.086-16.981-41.089-16.981-65.853c0-3.735,0.158-7.45,0.434-11.13h-33.494c-0.215,3.663-0.332,7.373-0.332,11.13
	c0,68.656,36.668,122.435,83.478,122.435s83.478-53.779,83.478-122.435C339.478,196.59,339.361,192.88,339.147,189.217z"/>
<path style="fill:#6DA544;" d="M105.739,122.435h33.391v22.261h33.391v-22.261h33.391v22.261h33.391v-22.261h33.391v22.261h33.391
	v-22.261h33.391v22.261h33.391v-22.261h33.391v22.261h80.337C445.19,59.065,357.493,0,256,0S66.81,59.065,25.402,144.696h80.337
	V122.435z"/>
<path style="fill:#D80027;" d="M406.261,367.304v22.261H372.87v-22.261h-33.391v22.261h-33.391v-22.261h-33.391v22.261h-33.391
	v-22.261h-33.391v22.261h-33.391v-22.261H139.13v22.261h-33.391v-22.261H25.402C66.81,452.935,154.506,512,256,512
	s189.19-59.065,230.598-144.696H406.261z"/>
<g>
</g>
<g>
</g>
<g>
</g>
<g>
</g>
<g>
</g>
<g>
</g>
<g>
</g>
<g>
</g>
<g>
</g>
<g>
</g>
<g>
</g>
<g>
</g>
<g>
</g>
<g>
</g>
<g>
</g>
</svg>
