<?xml version="1.0" encoding="iso-8859-1"?>
<!-- Generator: Adobe Illustrator 19.0.0, SVG Export Plug-In . SVG Version: 6.00 Build 0)  -->
<svg version="1.1" id="Layer_1" xmlns="http://www.w3.org/2000/svg" xmlns:xlink="http://www.w3.org/1999/xlink" x="0px" y="0px"
	 viewBox="0 0 512 512" style="enable-background:new 0 0 512 512;" xml:space="preserve">
<circle style="fill:#F0F0F0;" cx="256" cy="256" r="256"/>
<path style="fill:#A2001D;" d="M256,0C145.929,0,52.094,69.472,15.923,166.957h480.155C459.906,69.472,366.071,0,256,0z"/>
<path d="M256,512c110.071,0,203.906-69.472,240.077-166.957H15.923C52.094,442.528,145.929,512,256,512z"/>
<g>
	<path style="fill:#496E2D;" d="M194.783,239.304c-0.14,0-0.277,0.009-0.417,0.011v-0.011h-48.937
		c2.481-9.586,11.179-16.696,21.528-16.696v-33.391c-30.687,0-55.652,24.966-55.652,55.652v27.27v0.557h83.061
		c0.188,0,0.336,0,0.417,0c3.069,0,5.565,2.497,5.565,5.565v11.13H89.043v33.391h144.696v-44.522
		C233.739,256.78,216.263,239.304,194.783,239.304z"/>
	<polygon style="fill:#496E2D;" points="278.261,289.391 278.261,189.217 244.87,189.217 244.87,322.783 300.522,322.783 
		300.522,289.391 	"/>
	<polygon style="fill:#496E2D;" points="389.565,289.392 389.565,189.217 356.174,189.217 356.174,289.392 345.043,289.392 
		345.043,256.001 311.652,256.001 311.652,322.784 411.826,322.784 411.826,289.392 	"/>
</g>
<g>
</g>
<g>
</g>
<g>
</g>
<g>
</g>
<g>
</g>
<g>
</g>
<g>
</g>
<g>
</g>
<g>
</g>
<g>
</g>
<g>
</g>
<g>
</g>
<g>
</g>
<g>
</g>
<g>
</g>
</svg>
