<?xml version="1.0" encoding="iso-8859-1"?>
<!-- Generator: Adobe Illustrator 19.0.0, SVG Export Plug-In . SVG Version: 6.00 Build 0)  -->
<svg version="1.1" id="Layer_1" xmlns="http://www.w3.org/2000/svg" xmlns:xlink="http://www.w3.org/1999/xlink" x="0px" y="0px"
	 viewBox="0 0 512 512" style="enable-background:new 0 0 512 512;" xml:space="preserve">
<path style="fill:#F0F0F0;" d="M256,512c31.314,0,61.311-5.632,89.043-15.923L356.174,256l-11.13-240.077
	C317.311,5.633,287.314,0,256,0s-61.311,5.633-89.043,15.923L155.826,256l11.13,240.077C194.689,506.368,224.686,512,256,512z"/>
<path style="fill:#FF9811;" d="M0,256c0,110.071,69.472,203.906,166.957,240.077V15.923C69.472,52.094,0,145.929,0,256z"/>
<path style="fill:#6DA544;" d="M345.043,15.923v480.155C442.528,459.906,512,366.071,512,256S442.528,52.094,345.043,15.923z"/>
<g>
</g>
<g>
</g>
<g>
</g>
<g>
</g>
<g>
</g>
<g>
</g>
<g>
</g>
<g>
</g>
<g>
</g>
<g>
</g>
<g>
</g>
<g>
</g>
<g>
</g>
<g>
</g>
<g>
</g>
</svg>
