<?xml version="1.0" encoding="iso-8859-1"?>
<!-- Generator: Adobe Illustrator 19.0.0, SVG Export Plug-In . SVG Version: 6.00 Build 0)  -->
<svg version="1.1" id="Layer_1" xmlns="http://www.w3.org/2000/svg" xmlns:xlink="http://www.w3.org/1999/xlink" x="0px" y="0px"
	 viewBox="0 0 512 512" style="enable-background:new 0 0 512 512;" xml:space="preserve">
<circle style="fill:#338AF3;" cx="256" cy="256" r="256"/>
<path style="fill:#FFDA44;" d="M400.696,258.783H111.304c0,19.979,17.401,36.174,37.378,36.174h-1.204
	c0,19.979,16.195,36.174,36.174,36.174c0,19.979,16.195,36.174,36.174,36.174h72.348c19.979,0,36.174-16.195,36.174-36.174
	c19.979,0,36.174-16.195,36.174-36.174h-1.204C383.293,294.957,400.696,278.762,400.696,258.783z"/>
<path style="fill:#338AF3;" d="M356.174,211.478c0,55.324-44.85,100.174-100.174,100.174c-55.325,0-100.174-44.85-100.174-100.174"
	/>
<polygon style="fill:#FFDA44;" points="332.515,211.478 301.25,226.185 317.899,256.465 283.949,249.97 279.647,284.266 
	256,259.041 232.352,284.266 228.051,249.97 194.101,256.463 210.749,226.184 179.485,211.478 210.75,196.772 194.101,166.493 
	228.05,172.987 232.353,138.691 256,163.916 279.648,138.691 283.949,172.987 317.9,166.493 301.251,196.773 "/>
<g>
</g>
<g>
</g>
<g>
</g>
<g>
</g>
<g>
</g>
<g>
</g>
<g>
</g>
<g>
</g>
<g>
</g>
<g>
</g>
<g>
</g>
<g>
</g>
<g>
</g>
<g>
</g>
<g>
</g>
</svg>
