<?xml version="1.0" encoding="iso-8859-1"?>
<!-- Generator: Adobe Illustrator 19.0.0, SVG Export Plug-In . SVG Version: 6.00 Build 0)  -->
<svg version="1.1" id="Layer_1" xmlns="http://www.w3.org/2000/svg" xmlns:xlink="http://www.w3.org/1999/xlink" x="0px" y="0px"
	 viewBox="0 0 512 512" style="enable-background:new 0 0 512 512;" xml:space="preserve">
<path style="fill:#6DA544;" d="M496.077,345.043C506.368,317.311,512,287.314,512,256s-5.632-61.311-15.923-89.043L256,144.696
	L15.923,166.957C5.632,194.689,0,224.686,0,256s5.632,61.311,15.923,89.043L256,367.304L496.077,345.043z"/>
<path style="fill:#FFDA44;" d="M496.077,166.957C459.906,69.472,366.071,0,256,0S52.094,69.472,15.923,166.957H496.077z"/>
<path style="fill:#D80027;" d="M256,512c110.071,0,203.906-69.472,240.077-166.957H15.923C52.094,442.528,145.929,512,256,512z"/>
<g>
</g>
<g>
</g>
<g>
</g>
<g>
</g>
<g>
</g>
<g>
</g>
<g>
</g>
<g>
</g>
<g>
</g>
<g>
</g>
<g>
</g>
<g>
</g>
<g>
</g>
<g>
</g>
<g>
</g>
</svg>
