<?xml version="1.0" encoding="iso-8859-1"?>
<!-- Generator: Adobe Illustrator 19.0.0, SVG Export Plug-In . SVG Version: 6.00 Build 0)  -->
<svg version="1.1" id="Layer_1" xmlns="http://www.w3.org/2000/svg" xmlns:xlink="http://www.w3.org/1999/xlink" x="0px" y="0px"
	 viewBox="0 0 512 512" style="enable-background:new 0 0 512 512;" xml:space="preserve">
<path style="fill:#0052B4;" d="M256,512c31.314,0,61.311-5.632,89.043-15.923L356.174,256l-11.13-240.077
	C317.311,5.633,287.314,0,256,0s-61.311,5.633-89.043,15.923L155.826,256l11.13,240.077C194.689,506.368,224.686,512,256,512z"/>
<g>
	<path style="fill:#A2001D;" d="M0,256c0,110.071,69.472,203.906,166.957,240.077V15.923C69.472,52.094,0,145.929,0,256z"/>
	<path style="fill:#A2001D;" d="M345.043,15.923v480.155C442.528,459.906,512,366.071,512,256S442.528,52.094,345.043,15.923z"/>
</g>
<g>
	<rect x="122.435" y="256" style="fill:#FFDA44;" width="22.261" height="89.043"/>
	<rect x="33.391" y="256" style="fill:#FFDA44;" width="22.261" height="89.043"/>
	<circle style="fill:#FFDA44;" cx="89.043" cy="289.391" r="22.261"/>
	<circle style="fill:#FFDA44;" cx="89.043" cy="211.478" r="11.13"/>
	<rect x="66.783" y="322.783" style="fill:#FFDA44;" width="44.522" height="22.261"/>
	<rect x="66.783" y="233.739" style="fill:#FFDA44;" width="44.522" height="22.261"/>
	<polygon style="fill:#FFDA44;" points="89.043,133.565 96.927,157.825 122.435,157.825 101.8,172.819 109.678,197.079 
		89.043,182.085 68.409,197.079 76.287,172.819 55.652,157.825 81.16,157.825 	"/>
</g>
<g>
</g>
<g>
</g>
<g>
</g>
<g>
</g>
<g>
</g>
<g>
</g>
<g>
</g>
<g>
</g>
<g>
</g>
<g>
</g>
<g>
</g>
<g>
</g>
<g>
</g>
<g>
</g>
<g>
</g>
</svg>
