<?xml version="1.0" encoding="iso-8859-1"?>
<!-- Generator: Adobe Illustrator 19.0.0, SVG Export Plug-In . SVG Version: 6.00 Build 0)  -->
<svg version="1.1" id="Layer_1" xmlns="http://www.w3.org/2000/svg" xmlns:xlink="http://www.w3.org/1999/xlink" x="0px" y="0px"
	 viewBox="0 0 512 512" style="enable-background:new 0 0 512 512;" xml:space="preserve">
<circle style="fill:#FFDA44;" cx="256" cy="256" r="256"/>
<path style="fill:#A2001D;" d="M512,256c0-87.861-44.269-165.375-111.713-211.478H111.713C44.27,90.625,0,168.139,0,256
	c0,87.863,44.27,165.375,111.713,211.478h288.574C467.731,421.375,512,343.863,512,256z"/>
<g>
	<polygon style="fill:#FFDA44;" points="200.348,189.217 311.652,189.217 311.652,144.696 289.391,155.826 256,122.435 
		222.609,155.826 200.348,144.696 	"/>
	<path style="fill:#FFDA44;" d="M356.174,256h-55.631c2.182-3.774,3.45-8.141,3.45-12.813c0-14.187-11.501-25.686-25.686-25.686
		c-9.801,0-18.313,5.492-22.644,13.562c-4.331-8.071-12.843-13.562-22.644-13.562c-14.185,0-25.686,11.499-25.686,25.686
		c0,4.673,1.27,9.04,3.45,12.813h-54.959c0,17.023,14.827,30.822,31.849,30.822h-1.026c0,13.963,9.287,25.753,22.02,29.54
		l-25.017,25.019l23.611,23.611l33.493-33.493c1.312,0.481,2.669,0.865,4.072,1.129l-20.238,45.695
		c9.698,3.944,20.297,6.133,31.412,6.133c11.114,0,21.713-2.189,31.412-6.133l-20.238-45.695c1.402-0.263,2.759-0.648,4.07-1.129
		l33.493,33.493l23.61-23.611l-25.018-25.018c12.732-3.789,22.02-15.577,22.02-29.54h-1.027
		C341.346,286.822,356.174,273.023,356.174,256z"/>
</g>
<polygon style="fill:#6DA544;" points="256,272.696 219.826,289.391 219.826,322.783 256,345.043 292.174,322.783 292.174,289.391 
	"/>
<rect x="219.826" y="256" style="fill:#0052B4;" width="72.348" height="44.522"/>
<g>
</g>
<g>
</g>
<g>
</g>
<g>
</g>
<g>
</g>
<g>
</g>
<g>
</g>
<g>
</g>
<g>
</g>
<g>
</g>
<g>
</g>
<g>
</g>
<g>
</g>
<g>
</g>
<g>
</g>
</svg>
