<?xml version="1.0" encoding="iso-8859-1"?>
<!-- Generator: Adobe Illustrator 19.0.0, SVG Export Plug-In . SVG Version: 6.00 Build 0)  -->
<svg version="1.1" id="Layer_1" xmlns="http://www.w3.org/2000/svg" xmlns:xlink="http://www.w3.org/1999/xlink" x="0px" y="0px"
	 viewBox="0 0 512 512" style="enable-background:new 0 0 512 512;" xml:space="preserve">
<circle style="fill:#F0F0F0;" cx="256" cy="256" r="256"/>
<g>
	<path style="fill:#338AF3;" d="M256,0C154.506,0,66.81,59.065,25.402,144.696h461.195C445.19,59.065,357.493,0,256,0z"/>
	<path style="fill:#338AF3;" d="M256,512c101.493,0,189.19-59.065,230.598-144.696H25.402C66.81,452.935,154.506,512,256,512z"/>
</g>
<path style="fill:#FFDA44;" d="M256,178.087c-43.03,0-77.913,34.883-77.913,77.913S212.97,333.913,256,333.913
	S333.913,299.03,333.913,256S299.03,178.087,256,178.087z M256,300.522c-24.588,0-44.522-19.932-44.522-44.522
	s19.933-44.522,44.522-44.522s44.522,19.932,44.522,44.522S280.588,300.522,256,300.522z"/>
<polygon style="fill:#0052B4;" points="294.558,267.13 256,256 217.442,267.13 204.59,289.391 307.409,289.391 "/>
<polygon style="fill:#338AF3;" points="256,200.348 230.295,244.87 256,256 281.705,244.87 "/>
<polygon style="fill:#6DA544;" points="217.442,267.13 294.558,267.13 281.705,244.87 230.295,244.87 "/>
<g>
</g>
<g>
</g>
<g>
</g>
<g>
</g>
<g>
</g>
<g>
</g>
<g>
</g>
<g>
</g>
<g>
</g>
<g>
</g>
<g>
</g>
<g>
</g>
<g>
</g>
<g>
</g>
<g>
</g>
</svg>
