<?xml version="1.0" encoding="iso-8859-1"?>
<!-- Generator: Adobe Illustrator 19.0.0, SVG Export Plug-In . SVG Version: 6.00 Build 0)  -->
<svg version="1.1" id="Layer_1" xmlns="http://www.w3.org/2000/svg" xmlns:xlink="http://www.w3.org/1999/xlink" x="0px" y="0px"
	 viewBox="0 0 512 512" style="enable-background:new 0 0 512 512;" xml:space="preserve">
<g>
	<circle style="fill:#F0F0F0;" cx="256" cy="256" r="256"/>
	<path style="fill:#F0F0F0;" d="M0,256c0,97.035,53.989,181.454,133.565,224.873V31.127C53.989,74.546,0,158.965,0,256z"/>
</g>
<path style="fill:#496E2D;" d="M256,0c-44.35,0-86.064,11.283-122.435,31.127v449.745C169.936,500.717,211.65,512,256,512
	c141.384,0,256-114.616,256-256S397.384,0,256,0z"/>
<g>
	<path style="fill:#F0F0F0;" d="M365.453,298.337c-32.387,23.401-77.613,16.117-101.013-16.269
		c-23.402-32.388-16.117-77.613,16.27-101.013c10.098-7.296,21.444-11.609,32.987-13.108c-22.207-3.321-45.682,1.683-65.319,15.872
		c-39.86,28.802-48.827,84.463-20.026,124.325c28.801,39.859,84.463,48.827,124.325,20.023
		c19.639-14.189,31.76-34.902,35.578-57.031C383.209,281.622,375.552,291.04,365.453,298.337z"/>
	<polygon style="fill:#F0F0F0;" points="364.066,166.959 382.31,186.62 406.646,175.348 393.583,198.772 411.826,218.435 
		385.51,213.25 372.448,236.676 369.247,210.046 342.931,204.861 367.268,193.589 	"/>
</g>
<g>
</g>
<g>
</g>
<g>
</g>
<g>
</g>
<g>
</g>
<g>
</g>
<g>
</g>
<g>
</g>
<g>
</g>
<g>
</g>
<g>
</g>
<g>
</g>
<g>
</g>
<g>
</g>
<g>
</g>
</svg>
