<?xml version="1.0" encoding="iso-8859-1"?>
<!-- Generator: Adobe Illustrator 19.0.0, SVG Export Plug-In . SVG Version: 6.00 Build 0)  -->
<svg version="1.1" id="Layer_1" xmlns="http://www.w3.org/2000/svg" xmlns:xlink="http://www.w3.org/1999/xlink" x="0px" y="0px"
	 viewBox="0 0 512 512" style="enable-background:new 0 0 512 512;" xml:space="preserve">
<circle style="fill:#FFDA44;" cx="256" cy="256" r="256"/>
<g>
	<path style="fill:#D80027;" d="M294.932,509.057c41.636-6.352,79.962-22.748,112.456-46.618L256,256L294.932,509.057z"/>
	<path style="fill:#D80027;" d="M217.067,2.943C175.432,9.295,137.106,25.691,104.61,49.56L256,256L217.067,2.943z"/>
	<path style="fill:#D80027;" d="M104.61,462.439c32.494,23.869,70.82,40.265,112.455,46.619L256,256L104.61,462.439z"/>
	<path style="fill:#D80027;" d="M49.56,104.61C25.69,137.106,9.296,175.431,2.943,217.067L256,256L49.56,104.61z"/>
	<path style="fill:#D80027;" d="M2.943,294.932c6.352,41.636,22.748,79.962,46.618,112.456L256,256L2.943,294.932z"/>
	<path style="fill:#D80027;" d="M509.057,217.067c-6.353-41.635-22.748-79.961-46.618-112.456L256,256L509.057,217.067z"/>
	<path style="fill:#D80027;" d="M407.388,49.559C374.893,25.69,336.568,9.295,294.932,2.943L256,256L407.388,49.559z"/>
	<path style="fill:#D80027;" d="M462.441,407.389c23.869-32.495,40.264-70.822,46.618-112.456L256,256L462.441,407.389z"/>
	<circle style="fill:#D80027;" cx="256" cy="256" r="89.043"/>
</g>
<circle style="fill:#FFDA44;" cx="256" cy="256" r="66.783"/>
<g>
</g>
<g>
</g>
<g>
</g>
<g>
</g>
<g>
</g>
<g>
</g>
<g>
</g>
<g>
</g>
<g>
</g>
<g>
</g>
<g>
</g>
<g>
</g>
<g>
</g>
<g>
</g>
<g>
</g>
</svg>
