<?xml version="1.0" encoding="iso-8859-1"?>
<!-- Generator: Adobe Illustrator 19.0.0, SVG Export Plug-In . SVG Version: 6.00 Build 0)  -->
<svg version="1.1" id="Layer_1" xmlns="http://www.w3.org/2000/svg" xmlns:xlink="http://www.w3.org/1999/xlink" x="0px" y="0px"
	 viewBox="0 0 512 512" style="enable-background:new 0 0 512 512;" xml:space="preserve">
<circle style="fill:#F0F0F0;" cx="256" cy="256" r="256"/>
<path style="fill:#0052B4;" d="M256,0C114.616,0,0,114.616,0,256c0,31.314,5.633,61.311,15.923,89.043h480.155
	C506.368,317.311,512,287.314,512,256C512,114.616,397.384,0,256,0z"/>
<g>
	<path style="fill:#D80027;" d="M256,0C145.929,0,52.094,69.472,15.923,166.957h480.155C459.906,69.472,366.071,0,256,0z"/>
	<path style="fill:#D80027;" d="M66.198,144.696v127.706c0,72.644,94.901,94.903,94.901,94.903s94.9-22.259,94.9-94.903V144.696
		H66.198z"/>
</g>
<g>
	<polygon style="fill:#FFDA44;" points="105.446,166.957 216.751,166.957 216.751,122.435 194.49,133.565 161.099,100.174 
		127.707,133.565 105.446,122.435 	"/>
	<polygon style="fill:#FFDA44;" points="233.739,290.183 161.391,217.835 89.043,290.183 112.654,313.794 161.391,265.057 
		210.128,313.794 	"/>
</g>
<path style="fill:#F0F0F0;" d="M233.739,222.609h-33.756c1.898-3.276,3.002-7.07,3.002-11.128c0-12.296-9.967-22.261-22.261-22.261
	c-8.495,0-15.872,4.758-19.625,11.753c-3.753-6.994-11.13-11.753-19.625-11.753c-12.294,0-22.261,9.965-22.261,22.261
	c0,4.058,1.104,7.853,3.002,11.128H89.043c0,12.295,10.709,22.261,23.002,22.261h-0.741c0,12.295,9.966,22.261,22.261,22.261
	c0,10.886,7.818,19.93,18.143,21.866l-17.54,39.602c8.406,3.417,17.592,5.315,27.224,5.315c9.632,0,18.818-1.898,27.224-5.315
	l-17.54-39.602c10.325-1.934,18.143-10.979,18.143-21.866c12.295,0,22.261-9.966,22.261-22.261h-0.741
	C223.031,244.87,233.739,234.903,233.739,222.609z"/>
<g>
</g>
<g>
</g>
<g>
</g>
<g>
</g>
<g>
</g>
<g>
</g>
<g>
</g>
<g>
</g>
<g>
</g>
<g>
</g>
<g>
</g>
<g>
</g>
<g>
</g>
<g>
</g>
<g>
</g>
</svg>
