<?xml version="1.0" encoding="iso-8859-1"?>
<!-- Generator: Adobe Illustrator 19.0.0, SVG Export Plug-In . SVG Version: 6.00 Build 0)  -->
<svg version="1.1" id="Layer_1" xmlns="http://www.w3.org/2000/svg" xmlns:xlink="http://www.w3.org/1999/xlink" x="0px" y="0px"
	 viewBox="0 0 512 512" style="enable-background:new 0 0 512 512;" xml:space="preserve">
<circle style="fill:#F0F0F0;" cx="256" cy="256" r="256"/>
<path style="fill:#0052B4;" d="M496.077,166.957H222.609v-66.783H89.043v66.783h-73.12C5.633,194.689,0,224.686,0,256
	s5.633,61.31,15.923,89.043L256,367.304l240.077-22.261C506.367,317.31,512,287.314,512,256S506.367,194.689,496.077,166.957z"/>
<path style="fill:#D80027;" d="M256,512c110.071,0,203.906-69.472,240.077-166.957H15.923C52.094,442.528,145.929,512,256,512z"/>
<path style="fill:#F0F0F0;" d="M89.043,166.957v22.26c0,51.121,66.783,66.784,66.783,66.784s66.783-15.663,66.783-66.784v-22.26
	l-22.261,22.261l-44.522-33.391l-44.522,33.391L89.043,166.957z"/>
<g>
</g>
<g>
</g>
<g>
</g>
<g>
</g>
<g>
</g>
<g>
</g>
<g>
</g>
<g>
</g>
<g>
</g>
<g>
</g>
<g>
</g>
<g>
</g>
<g>
</g>
<g>
</g>
<g>
</g>
</svg>
