<?xml version="1.0" encoding="iso-8859-1"?>
<!-- Generator: Adobe Illustrator 19.0.0, SVG Export Plug-In . SVG Version: 6.00 Build 0)  -->
<svg version="1.1" id="Layer_1" xmlns="http://www.w3.org/2000/svg" xmlns:xlink="http://www.w3.org/1999/xlink" x="0px" y="0px"
	 viewBox="0 0 512 512" style="enable-background:new 0 0 512 512;" xml:space="preserve">
<circle style="fill:#F0F0F0;" cx="256" cy="256" r="256"/>
<path d="M74.98,437.02c-99.974-99.975-99.974-262.065,0-362.04C74.973,74.991,222.609,256,222.609,256L74.98,437.02z"/>
<path style="fill:#FFDA44;" d="M222.609,256L33.953,128.513c-5.849,10.167-11.007,20.779-15.439,31.763l95.509,95.725l-95.506,95.73
	c4.428,10.976,9.581,21.581,15.426,31.741L222.609,256z"/>
<path style="fill:#6DA544;" d="M509.833,222.609H222.602L74.978,74.984c-15.908,15.908-29.729,33.899-41.025,53.53L161.192,256
	L33.943,383.47c11.296,19.636,25.123,37.633,41.035,53.545l147.624-147.624h287.231C511.256,278.461,512,267.317,512,256
	C512,244.683,511.256,233.539,509.833,222.609z"/>
<path style="fill:#0052B4;" d="M100.138,459.077C143.307,492.259,197.344,512,256,512c118.279,0,217.805-80.221,247.181-189.217
	H236.433L100.138,459.077z"/>
<path style="fill:#D80027;" d="M503.181,189.217C473.805,80.221,374.279,0,256,0c-58.656,0-112.693,19.741-155.862,52.923
	l136.294,136.294H503.181z"/>
<g>
</g>
<g>
</g>
<g>
</g>
<g>
</g>
<g>
</g>
<g>
</g>
<g>
</g>
<g>
</g>
<g>
</g>
<g>
</g>
<g>
</g>
<g>
</g>
<g>
</g>
<g>
</g>
<g>
</g>
</svg>
