<?xml version="1.0" encoding="iso-8859-1"?>
<!-- Generator: Adobe Illustrator 19.0.0, SVG Export Plug-In . SVG Version: 6.00 Build 0)  -->
<svg version="1.1" id="Layer_1" xmlns="http://www.w3.org/2000/svg" xmlns:xlink="http://www.w3.org/1999/xlink" x="0px" y="0px"
	 viewBox="0 0 511.999 511.999" style="enable-background:new 0 0 511.999 511.999;" xml:space="preserve">
<polygon style="fill:#FF9811;" points="0.001,44.522 0,44.522 0,467.477 0.001,467.477 0.001,256.001 "/>
<circle style="fill:#FFDA44;" cx="255.999" cy="255.999" r="255.999"/>
<path style="fill:#FF9811;" d="M200.349,44.522h-88.635c-3.928,2.685-7.772,5.48-11.539,8.373L77.914,255.999l22.261,203.104
	c3.767,2.894,7.611,5.689,11.539,8.373h88.635V44.522z"/>
<path style="fill:#6DA544;" d="M0.001,256.001c0,82.745,39.268,156.307,100.174,203.104V52.896
	C39.269,99.694,0.001,173.256,0.001,256.001z"/>
<polygon style="fill:#FFDA44;" points="411.826,156.064 411.826,162.469 412.064,162.505 "/>
<path style="fill:#A2001D;" d="M491.595,322.782h-48.233l-20.405,22.261v44.522h-44.522v-22.261h22.261v-44.522H300.522v27.826
	h-22.261v-53.031c-6.83-6.114-11.13-14.995-11.13-24.882V128c0-18.441,14.95-33.391,33.391-33.391v205.913h44.522l15.276-12.731
	c-2.668-6.355-4.146-13.334-4.146-20.66v-33.391h-33.391v-66.782h66.782c0-11.13,16.696-22.261,16.696-22.261
	s16.696,11.13,16.696,22.261v16.696v50.087c12.383,0.147,32.057-0.174,53.312,0c-5.584-9.76-8.791-21.341-8.791-33.391
	c0-19.641,8.48-37.299,21.978-49.519C470,107.716,438.954,70.954,400.287,44.522H233.74v422.956h166.548
	c47.019-32.141,82.768-79.552,100.112-135.09L491.595,322.782z"/>
<g>
</g>
<g>
</g>
<g>
</g>
<g>
</g>
<g>
</g>
<g>
</g>
<g>
</g>
<g>
</g>
<g>
</g>
<g>
</g>
<g>
</g>
<g>
</g>
<g>
</g>
<g>
</g>
<g>
</g>
</svg>
