<?xml version="1.0" encoding="iso-8859-1"?>
<!-- Generator: Adobe Illustrator 19.0.0, SVG Export Plug-In . SVG Version: 6.00 Build 0)  -->
<svg version="1.1" id="Layer_1" xmlns="http://www.w3.org/2000/svg" xmlns:xlink="http://www.w3.org/1999/xlink" x="0px" y="0px"
	 viewBox="0 0 512 512" style="enable-background:new 0 0 512 512;" xml:space="preserve">
<circle style="fill:#D80027;" cx="256" cy="256" r="256"/>
<circle style="fill:#F0F0F0;" cx="256" cy="256" r="122.435"/>
<g>
	<polygon style="fill:#D80027;" points="271.083,209.186 292.087,238.131 326.104,227.101 305.067,256.021 326.069,284.965 
		292.063,273.893 271.026,302.813 271.048,267.052 237.043,255.98 271.061,244.95 	"/>
	<path style="fill:#D80027;" d="M283.826,328.348c-39.956,0-72.348-32.392-72.348-72.348s32.392-72.348,72.348-72.348
		c12.458,0,24.181,3.15,34.415,8.696c-16.055-15.701-38.01-25.392-62.241-25.392c-49.176,0-89.043,39.866-89.043,89.043
		s39.867,89.043,89.043,89.043c24.231,0,46.187-9.691,62.241-25.392C308.007,325.198,296.284,328.348,283.826,328.348z"/>
</g>
<g>
</g>
<g>
</g>
<g>
</g>
<g>
</g>
<g>
</g>
<g>
</g>
<g>
</g>
<g>
</g>
<g>
</g>
<g>
</g>
<g>
</g>
<g>
</g>
<g>
</g>
<g>
</g>
<g>
</g>
</svg>
